<svg xmlns="http://www.w3.org/2000/svg" width="216.927" height="40.667" viewBox="0 0 216.927 40.667"><g transform="translate(-37.433 -30)"><g transform="translate(105 37)"><path d="M0,.64A16.244,16.244,0,0,1,2.58.42,16.819,16.819,0,0,1,5.19.64V26.07a16.7,16.7,0,0,1-2.58.21A16.4,16.4,0,0,1,0,26.07V.64Z" fill="#373a4e"/><path d="M8.37,7.78c.33-.07.66-.12.99-.16a9.182,9.182,0,0,1,1.09-.05c.4,0,.75.02,1.06.05s.62.09.95.16a1.824,1.824,0,0,1,.19.51c.06.22.11.46.16.71s.09.49.12.72.06.44.09.6a8.769,8.769,0,0,1,.85-1.06,6.1,6.1,0,0,1,2.62-1.65,5.668,5.668,0,0,1,1.8-.27,6.084,6.084,0,0,1,4.68,1.7q1.575,1.7,1.57,5.34V26.05a15.105,15.105,0,0,1-5.02,0V15.74a6.052,6.052,0,0,0-.58-2.94,2.153,2.153,0,0,0-2.03-1.03,4.591,4.591,0,0,0-1.24.18,2.65,2.65,0,0,0-1.15.69,3.7,3.7,0,0,0-.83,1.43,7.524,7.524,0,0,0-.32,2.4v9.58a15.105,15.105,0,0,1-5.02,0V7.78Z" fill="#373a4e"/><path d="M24.68,7.81a9.447,9.447,0,0,1,1.57-.21c.48-.02.9-.04,1.25-.04.47,0,.94.01,1.41.04a6.574,6.574,0,0,1,1.31.18L34.21,21.4,38.13,7.78c.4-.07.82-.12,1.27-.16s.89-.05,1.34-.05c.35,0,.76.01,1.22.04a11.582,11.582,0,0,1,1.57.21L36.61,26.07a12.466,12.466,0,0,1-1.41.14c-.49.02-.91.04-1.24.04-.35,0-.75-.01-1.2-.04a6.373,6.373,0,0,1-1.27-.18Z" fill="#373a4e"/><path d="M51.45,26.49a9.444,9.444,0,0,1-3.87-.73,7.268,7.268,0,0,1-2.72-2.02,8.7,8.7,0,0,1-1.62-3.02,12.275,12.275,0,0,1-.55-3.75,12.565,12.565,0,0,1,.55-3.78,8.785,8.785,0,0,1,1.62-3.06A7.426,7.426,0,0,1,47.58,8.1a10.516,10.516,0,0,1,7.75,0,7.651,7.651,0,0,1,2.75,2.03,8.316,8.316,0,0,1,1.62,3.06,13.23,13.23,0,0,1,.53,3.78,12.923,12.923,0,0,1-.53,3.75,8.452,8.452,0,0,1-1.62,3.02,7.6,7.6,0,0,1-2.75,2.02A9.46,9.46,0,0,1,51.45,26.49Zm0-3.82a3.027,3.027,0,0,0,2.84-1.47,8.4,8.4,0,0,0,.87-4.23,8.4,8.4,0,0,0-.87-4.23,3.449,3.449,0,0,0-5.65,0,8.4,8.4,0,0,0-.87,4.23,8.4,8.4,0,0,0,.87,4.23A3.02,3.02,0,0,0,51.45,22.67Z" fill="#373a4e"/><path d="M62.29.21A15.458,15.458,0,0,1,64.8,0a15.164,15.164,0,0,1,2.47.21V18.78a10.5,10.5,0,0,0,.12,1.77,2.46,2.46,0,0,0,.39,1.04,1.34,1.34,0,0,0,.69.51,3.535,3.535,0,0,0,1.06.14,4.7,4.7,0,0,0,.62-.04,4.642,4.642,0,0,0,.65-.11,10.891,10.891,0,0,1,.39,2.83v.51a2,2,0,0,1-.07.51,6.624,6.624,0,0,1-1.36.25c-.53.05-1.02.07-1.47.07a6.209,6.209,0,0,1-4.36-1.5q-1.635-1.5-1.64-4.9V.21Z" fill="#373a4e"/><path d="M69.29,7.81a9.447,9.447,0,0,1,1.57-.21c.48-.02.9-.04,1.25-.04.47,0,.94.01,1.41.04a6.574,6.574,0,0,1,1.31.18L78.82,21.4,82.74,7.78c.4-.07.82-.12,1.27-.16s.89-.05,1.34-.05c.35,0,.76.01,1.22.04a10.183,10.183,0,0,1,1.57.21L81.22,26.07a12.466,12.466,0,0,1-1.41.14c-.49.02-.91.04-1.24.04-.35,0-.75-.01-1.2-.04a6.373,6.373,0,0,1-1.27-.18Z" fill="#373a4e"/><path d="M92.31,18.46a3.854,3.854,0,0,0,1.48,3.08,5.923,5.923,0,0,0,3.53.95,13.8,13.8,0,0,0,2.45-.23,13.876,13.876,0,0,0,2.38-.65,8.25,8.25,0,0,1,.67,1.7,8.955,8.955,0,0,1,.32,2.12,17.139,17.139,0,0,1-6.21,1.06,12.032,12.032,0,0,1-4.36-.71,7.868,7.868,0,0,1-2.97-1.96,7.739,7.739,0,0,1-1.69-2.99,12.333,12.333,0,0,1-.55-3.78,12.518,12.518,0,0,1,.56-3.78,9.008,9.008,0,0,1,1.68-3.08,8.02,8.02,0,0,1,2.75-2.07,8.966,8.966,0,0,1,3.83-.76,8.109,8.109,0,0,1,3.39.67,7.4,7.4,0,0,1,2.52,1.84,7.739,7.739,0,0,1,1.57,2.78,11.033,11.033,0,0,1,.53,3.45c0,.45-.02.89-.05,1.33s-.08.78-.12,1.04H92.31Zm7.17-3.5a4.47,4.47,0,0,0-.94-2.74,2.984,2.984,0,0,0-2.42-1.04,3.465,3.465,0,0,0-2.68.99,4.613,4.613,0,0,0-1.09,2.79Z" fill="#373a4e"/><path d="M107.11.64a18.5,18.5,0,0,1,2.72-.21,17.605,17.605,0,0,1,2.72.21l5.83,14.57,6-14.57a12.976,12.976,0,0,1,2.44-.21,15.491,15.491,0,0,1,2.58.21l1.2,25.43a16.5,16.5,0,0,1-2.54.21,13.389,13.389,0,0,1-2.37-.21l-.64-17.26-5.16,11.95q-.5.075-1.02.12c-.35.03-.71.05-1.06.05-.31,0-.61-.01-.92-.04a6.609,6.609,0,0,1-.95-.14l-4.8-12.2-.49,17.51a11.925,11.925,0,0,1-2.19.21,13.539,13.539,0,0,1-2.33-.21Z" fill="#373a4e"/><path d="M137.48,18.46a3.854,3.854,0,0,0,1.48,3.08,5.923,5.923,0,0,0,3.53.95,13.8,13.8,0,0,0,2.45-.23,13.876,13.876,0,0,0,2.38-.65,8.251,8.251,0,0,1,.67,1.7,8.955,8.955,0,0,1,.32,2.12,17.139,17.139,0,0,1-6.21,1.06,12.032,12.032,0,0,1-4.36-.71,7.868,7.868,0,0,1-2.97-1.96,7.738,7.738,0,0,1-1.69-2.99,12.333,12.333,0,0,1-.55-3.78,12.518,12.518,0,0,1,.56-3.78,9.008,9.008,0,0,1,1.68-3.08,8.02,8.02,0,0,1,2.75-2.07,8.966,8.966,0,0,1,3.83-.76,8.109,8.109,0,0,1,3.39.67,7.4,7.4,0,0,1,2.52,1.84,7.74,7.74,0,0,1,1.57,2.78,11.033,11.033,0,0,1,.53,3.45c0,.45-.02.89-.05,1.33s-.08.78-.12,1.04H137.48Zm7.17-3.5a4.47,4.47,0,0,0-.94-2.74,2.984,2.984,0,0,0-2.42-1.04,3.465,3.465,0,0,0-2.68.99,4.613,4.613,0,0,0-1.09,2.79Z" fill="#373a4e"/></g><g transform="translate(37.439 30)"><path d="M44.847,13.53,42.156,8.3A1.444,1.444,0,1,0,39.874,6.82L20.9,5.71a1.46,1.46,0,0,0-2-1.192,1.473,1.473,0,0,0-.822,1.912,1.244,1.244,0,0,0,.054.117L4.225,16.985a1.472,1.472,0,1,0-1.538,2.457L1.432,27.715a1.591,1.591,0,0,0-.511.1,1.47,1.47,0,1,0,1.786,2.146l9.586,3.888a1.176,1.176,0,0,0,.063.657,1.215,1.215,0,0,0,2.341-.394l7.173-1.2A.888.888,0,0,0,23,33.345a.833.833,0,0,0,.321-.224l6.613,3.236a1.333,1.333,0,0,0,1.791,1.591.965.965,0,0,0,.1-.054l3.815,4.939a.255.255,0,0,0,.234.1l.068-.015a.285.285,0,0,0,.141-.131l2-4.394a1.168,1.168,0,0,0,1.324-1.577,1.361,1.361,0,0,0-.073-.146l5.576-5.124a1.316,1.316,0,1,0,1.007-2.355L45.65,16.7a1.469,1.469,0,0,0,.316-.092,1.639,1.639,0,0,0-1.119-3.08ZM37.709,36.264a1.152,1.152,0,0,0-.491.642l-4.657-.36a1.234,1.234,0,0,0-.083-.345,1.34,1.34,0,0,0-.71-.73l2-9.017a1.749,1.749,0,0,0,.5-.029ZM23.519,32.24l9.041-6.355a1.8,1.8,0,0,0,.7.462l-2,9.017a1.28,1.28,0,0,0-.53.1,1.3,1.3,0,0,0-.564.438l-6.613-3.236A.9.9,0,0,0,23.519,32.24ZM32.2,25.311a1.42,1.42,0,0,0,.068.151l-9.041,6.355a.872.872,0,0,0-.53-.19L21.568,27.6a1.679,1.679,0,0,0-.9-3.2l-.633-2.258a1.549,1.549,0,0,0,.827-1.825l6.2-2.973a2.133,2.133,0,0,0,2.584.827c.024-.01.049-.024.068-.034L32.75,23.2A1.839,1.839,0,0,0,32.2,25.311Zm-19.153,7.62a1.183,1.183,0,0,0-.55.443L2.907,29.491a1.448,1.448,0,0,0-.019-.691l15.221-7.163a1.541,1.541,0,0,0,1.431.652l.633,2.258a1.679,1.679,0,0,0-.623,2.574l-5.44,5.893A1.2,1.2,0,0,0,13.043,32.931ZM30.721,15.17l9.557-6.963a1.452,1.452,0,0,0,1.421.336l2.691,5.226a1.647,1.647,0,0,0-.667,1.173l-12.768.866a2.4,2.4,0,0,0-.112-.394C30.8,15.331,30.765,15.248,30.721,15.17ZM39.84,7.331a1.387,1.387,0,0,0,.092.365c.015.029.029.063.044.092l-9.557,6.968a2.124,2.124,0,0,0-2.345-.521,1.911,1.911,0,0,0-.438.243L20.6,6.776a1.459,1.459,0,0,0,.263-.555ZM18.434,6.956a1.475,1.475,0,0,0,1.552.287,1.827,1.827,0,0,0,.238-.122l7.031,7.7a2.128,2.128,0,0,0-.4,2.063l-6.2,2.978a1.546,1.546,0,0,0-2.725.394L4.707,18.1a1.421,1.421,0,0,0-.107-.579,1.165,1.165,0,0,0-.063-.136ZM3.194,19.545a1.5,1.5,0,0,0,.594-.107,1.456,1.456,0,0,0,.822-.832l13.231,2.156a1.683,1.683,0,0,0,.054.409L2.673,28.333a1.471,1.471,0,0,0-.73-.545ZM14.488,33.359l5.445-5.888a1.7,1.7,0,0,0,1.139.272L22.2,31.773a.888.888,0,0,0-.4.637l-7.168,1.2v0A1.114,1.114,0,0,0,14.488,33.359Zm21.3,8.827-3.557-4.6a1.36,1.36,0,0,0,.282-.521l4.652.36a1.351,1.351,0,0,0,.068.268,1.166,1.166,0,0,0,.38.491Zm3.2-5.9a1.172,1.172,0,0,0-.8-.195L34.75,26.255a1.831,1.831,0,0,0,.672-.589l9,4.472a1.306,1.306,0,0,0,.044.837,1.483,1.483,0,0,0,.1.195ZM45.4,29.2a1.611,1.611,0,0,0-.2.058,1.351,1.351,0,0,0-.55.418l-9-4.472a1.858,1.858,0,0,0-.034-1.265,1.834,1.834,0,0,0-2.389-1.017l-.029.015L30.166,17.88a2.139,2.139,0,0,0,.817-1.562l12.773-.866a2.39,2.39,0,0,0,.073.248,1.642,1.642,0,0,0,1.3,1.012Z" transform="translate(0 -2.265)" fill="#010101"/><path d="M17.243,18.089C13.9,21.879,3.37,18.853,7.6,12.4S21.083,4.133,26.45,4.079,44.2,8.43,45.082,11.087,42.333,13.057,40.7,12.4A20.445,20.445,0,0,0,17.243,18.089Z" transform="translate(-3.398 -2.094)" fill="#ffc62a" fill-rule="evenodd"/><path d="M19.9,5.236c16.233-2.063,18.909-2.044,25.649,4.6,13.6,13.391,20.35,7.552,15.785,1.095C56.877,4.623,41.2-6.691,19.9,5.236Z" transform="translate(-10.22 0)" fill="#34af6a" fill-rule="evenodd"/><path d="M49.52,49.993c-3.937,2,.263,3.3,5.28,2.18,6.954-1.557,5.606,2.691,7.8,6.958,1.727,3.372.428-4.671.545-6.087s-5.4-5.075-10.2-3.985C50.119,49.7,51.33,49.074,49.52,49.993Z" transform="translate(-24.629 -25.084)" fill="#903e97" fill-rule="evenodd"/><path d="M71.75,53.736c.939-6.817.6-7.63,3.508-11.163S71.4,31.605,68.68,35.347C65.892,39.2,63.532,40.6,58.14,41.59c7.5,3.085,9.679.1,9,9.956C66.86,55.76,70.816,60.558,71.75,53.736Z" transform="translate(-29.852 -17.62)" fill="#f36b21" fill-rule="evenodd"/><path d="M5.277,39.36C-.557,42.625.9,28.012,2.791,30.338c2.141,2.633,4.156,4.258,8.7,3.732s7.961-4.253,9.63-5.912c.55-.545,3.873,9.8,2.487,9.333s-10.253,2.487-10.253,2.487S11.953,35.623,5.277,39.36Z" transform="translate(-0.58 -14.446)" fill="#b92425" fill-rule="evenodd"/><path d="M46.776,23.222c-1.718-1.927-12.481-2.058-16.155,5.6-2.083,4.345-4.044,7.255-5.061,7.314,1.8,3.3,7.289,4.175,8.788,1.085C37.686,30.326,56.858,34.545,46.776,23.222Z" transform="translate(-13.126 -11.354)" fill="#105dab" fill-rule="evenodd"/></g></g></svg>